# xmcd
#
# Track frame offsets:
#	150
#	15569
#	30032
#	40713
#	62770
#	69879
#	87593
#	104819
#	114414
#	124336
#	133854
#	145112
#	153014
#	169816
#	180827
#
# Disc length: 2673 seconds
#
# Revision: 1
# Processed by: cddbd v1.5.2PL0 Copyright (c) Steve Scherf et al.
# Submitted via: audiograbber 1.83.01
#
DISCID=bc0a6f0f
DTITLE=Musette - Datum
DYEAR=2009
DGENRE=Folk
TTITLE0=24 Maj
TTITLE1=2 Mars
TTITLE2=23 Oktober
TTITLE3=10 Juli
TTITLE4=17 Oktober
TTITLE5=14 April
TTITLE6=18 Juli
TTITLE7=24 Januari
TTITLE8=1 Juni
TTITLE9=3 Februari
TTITLE10=15 Oktober
TTITLE11=22 December
TTITLE12=9 November
TTITLE13=4 September
TTITLE14=9 November (cassette version)
EXTD=
EXTT0=
EXTT1=
EXTT2=
EXTT3=
EXTT4=
EXTT5=
EXTT6=
EXTT7=
EXTT8=
EXTT9=
EXTT10=
EXTT11=
EXTT12=
EXTT13=
EXTT14=
PLAYORDER=
